<svg id="Layer_1" data-name="Layer 1" xmlns="http://www.w3.org/2000/svg" xmlns:xlink="http://www.w3.org/1999/xlink" viewBox="0 0 799.76 803.04"><defs><style>.cls-1{fill:none;}.cls-2{clip-path:url(#clip-path);}.cls-3{stroke:#000;stroke-miterlimit:10;fill:url(#linear-gradient);}</style><clipPath id="clip-path" transform="translate(-0.74 2.54)"><path class="cls-1" d="M433.33,537.33H370l-61-100-60.67,100H188.67l87-133.33L194.33,275.67h61.34L312,370l54.67-94.33h59.66l-82,130Zm55,3.67a64.68,64.68,0,0,1-55-27.33,127.07,127.07,0,0,1-20-76A126.28,126.28,0,0,1,433.67,361a71.26,71.26,0,0,1,114,1.67h1.66a231.59,231.59,0,0,1-4-40V259H600V537.33H558l-10.33-25.66h-2.34A62.65,62.65,0,0,1,488.33,541Zm19.34-43.33a36.65,36.65,0,0,0,30.66-12.34A71.63,71.63,0,0,0,549,444v-6a81.06,81.06,0,0,0-10-46,37,37,0,0,0-33.33-14,33.34,33.34,0,0,0-28.34,15.33,84.08,84.08,0,0,0-10,45.34,78.08,78.08,0,0,0,10,44,33.36,33.36,0,0,0,30.34,15Zm125.66-331V633.33H166.67V166.67H633.33m0-66.67H166.67A66.67,66.67,0,0,0,100,166.67V633.33A66.67,66.67,0,0,0,166.67,700H633.33A66.67,66.67,0,0,0,700,633.33V166.67A66.67,66.67,0,0,0,633.33,100Z"/></clipPath><linearGradient id="linear-gradient" x1="-0.32" y1="801.72" x2="800.08" y2="1.32" gradientUnits="userSpaceOnUse"><stop offset="0" stop-color="#ffd900"/><stop offset="0.27" stop-color="#f07"/><stop offset="0.58" stop-color="#3e5151"/><stop offset="0.84" stop-color="#513e3e"/></linearGradient></defs><g class="cls-2"><rect class="cls-3" x="0.5" y="0.5" width="798.76" height="802.04"/></g></svg>