<svg xmlns="http://www.w3.org/2000/svg" xmlns:xlink="http://www.w3.org/1999/xlink" viewBox="0 0 1023.4 991.45"><defs><style>.cls-1{fill:none;}.cls-2{clip-path:url(#clip-path);}.cls-3{stroke:#000;stroke-miterlimit:10;fill:url(#linear-gradient);}</style><clipPath id="clip-path" transform="translate(50.01 36.85)"><path class="cls-1" d="M289.45,318.23,337.2,478.1H242Zm389,65.21q-45,0-53.54,62.05H728.36v-8.23q.6-25.65-12.47-39.73T678.48,383.44ZM921.05,156.86V764.19A156.86,156.86,0,0,1,764.19,921.05H156.86A156.86,156.86,0,0,1,0,764.19V156.86A156.86,156.86,0,0,1,156.86,0H764.19A156.86,156.86,0,0,1,921.05,156.86ZM503.28,650,339.64,189.07H239.26L76.84,650H190.9l25.55-86.11h146.3L388.61,650ZM828.74,470.81q0-80.08-40.16-124.88t-109.5-44.79q-49.26,0-85.16,22t-54.6,62.2q-18.71,40.21-18.7,92.76V487q0,75.35,46.84,122.35t122.58,47A177.49,177.49,0,0,0,765.62,640q35.13-16.31,54.29-43.85l-46.84-57.61Q745.7,574,697,574q-29.5,0-48.06-16.46t-24-45.27h203.8Z"/></clipPath><linearGradient id="linear-gradient" x1="8.49" y1="998.94" x2="1014.91" y2="-7.49" gradientUnits="userSpaceOnUse"><stop offset="0" stop-color="#ffd900"/><stop offset="0.27" stop-color="#f07"/><stop offset="0.58" stop-color="#3e5151"/><stop offset="0.84" stop-color="#513e3e"/></linearGradient></defs><g id="Layer_2" data-name="Layer 2"><g id="Layer_1-2" data-name="Layer 1"><g class="cls-2"><rect class="cls-3" x="0.5" y="0.5" width="1022.4" height="990.45"/></g></g></g></svg>