<svg xmlns="http://www.w3.org/2000/svg" xmlns:xlink="http://www.w3.org/1999/xlink" viewBox="0 0 800.99 808.84"><defs><style>.cls-1{fill:none;}.cls-2{clip-path:url(#clip-path);}.cls-3{stroke:#000;stroke-miterlimit:10;fill:url(#linear-gradient);}</style><clipPath id="clip-path" transform="translate(2.67 79.17)"><path id="_2069a460dcf28295e231f3111e0426ac" data-name="2069a460dcf28295e231f3111e0426ac" class="cls-1" d="M796.1,361.75a238.37,238.37,0,0,0-33.94-92.9,259.44,259.44,0,0,0-59.37-66.21l.07-.06L452.55,10.33c-.21-.18-.42-.35-.56-.45C443.67,3.51,432.4,0,420.27,0s-23.84,3.52-32.95,9.9c-9.78,6.84-15.38,15.91-15.77,25.56-.36,9,3.94,17.68,12.13,24.44C399.79,72.6,415.87,85.59,432,98.6c15.62,12.62,31.72,25.62,47.73,38.28l-306.58-.21c-35.06,0-58.93,16.47-63.84,44-2.16,12.07,1.65,25.35,10.16,35.52,9,10.78,22.14,16.72,36.92,16.72h23.37c32.29,0,64.72-.07,97.1-.15l30.89-.07L29.46,438.58l-1.1.81C12.81,451.3,2.64,468,.44,485.21c-1.66,13,1.38,24.94,8.8,34.46,8.84,11.34,22.65,17.57,38.88,17.57,15.95,0,32.22-6,45.84-17l150.26-123a197.57,197.57,0,0,0-1.34,21.21c.17,10.12,3.42,30.44,8.57,46.93a246.38,246.38,0,0,0,53.22,92.13,274.85,274.85,0,0,0,93,66.75,298.77,298.77,0,0,0,121.62,25.38h.39a299.42,299.42,0,0,0,122-25.81c36.06-16.15,67.33-38.7,92.92-67,24.65-27.37,42.53-58.43,53.14-92.29a231.72,231.72,0,0,0,8.38-102.75ZM522.38,524.19c-94,0-170.18-68.17-170.18-152.26s76.21-152.25,170.18-152.25,170.16,68.16,170.16,152.25S616.35,524.19,522.38,524.19Zm98.13-165.64c1.39,25.1-8.64,48.4-26.24,65.65-17.91,17.58-43.46,28.62-72,28.62s-54.12-11-72-28.62C432.6,407,422.6,383.65,424,358.57c1.36-24.38,13.25-45.9,31.16-61.14,17.61-15,41.27-24.12,67.1-24.12s49.49,9.14,67.1,24.12C607.25,312.67,619.15,334.18,620.51,358.55Z"/></clipPath><linearGradient id="linear-gradient" x1="-1.46" y1="806.38" x2="802.45" y2="2.46" gradientUnits="userSpaceOnUse"><stop offset="0" stop-color="#ffd900"/><stop offset="0.27" stop-color="#f07"/><stop offset="0.58" stop-color="#3e5151"/><stop offset="0.84" stop-color="#513e3e"/></linearGradient></defs><g id="Layer_2" data-name="Layer 2"><g id="Layer_1-2" data-name="Layer 1"><g class="cls-2"><rect class="cls-3" x="0.5" y="0.5" width="799.99" height="807.84"/></g></g></g></svg>