<svg xmlns="http://www.w3.org/2000/svg" xmlns:xlink="http://www.w3.org/1999/xlink" viewBox="0 0 22.49 26.33"><defs><style>.cls-1{fill:none;}.cls-2{clip-path:url(#clip-path);}.cls-3{fill:url(#linear-gradient);}</style><clipPath id="clip-path" transform="translate(0.25 1.92)"><path class="cls-1" d="M21.87.17A.48.48,0,0,0,21.5,0H.5A.48.48,0,0,0,.13.17.48.48,0,0,0,0,.55l2,20a.5.5,0,0,0,.34.42l9,3a.45.45,0,0,0,.16,0,.57.57,0,0,0,.18,0l8-3a.52.52,0,0,0,.32-.42l2-20A.48.48,0,0,0,21.87.17ZM19,20.14,11.49,23,3,20.13,1.05,1H21ZM5.5,6H16.9l-.69,4H6a.5.5,0,0,0,0,1H16l-1,5.63L11.49,18,7.43,16.62,7,14.4A.49.49,0,0,0,6.4,14,.5.5,0,0,0,6,14.6l.5,2.5a.48.48,0,0,0,.33.37l4.5,1.5a.45.45,0,0,0,.16,0,.57.57,0,0,0,.18,0l4-1.5a.5.5,0,0,0,.31-.38l2-11.5a.47.47,0,0,0-.11-.41A.49.49,0,0,0,17.5,5H5.5a.5.5,0,0,0-.5.5A.5.5,0,0,0,5.5,6Z"/></clipPath><linearGradient id="linear-gradient" x1="-0.96" y1="25.37" x2="23.45" y2="0.96" gradientUnits="userSpaceOnUse"><stop offset="0" stop-color="#ffd900"/><stop offset="0.27" stop-color="#f07"/><stop offset="0.58" stop-color="#3e5151"/><stop offset="0.84" stop-color="#513e3e"/></linearGradient></defs><g id="Layer_2" data-name="Layer 2"><g id="Layer_1-2" data-name="Layer 1"><g class="cls-2"><rect class="cls-3" width="22.49" height="26.33"/></g></g></g></svg>