<svg id="Layer_1" data-name="Layer 1" xmlns="http://www.w3.org/2000/svg" xmlns:xlink="http://www.w3.org/1999/xlink" viewBox="0 0 165.66 162.44"><defs><style>.cls-1{fill:none;}.cls-2{clip-path:url(#clip-path);}.cls-3{fill:url(#linear-gradient);}</style><clipPath id="clip-path" transform="translate(-137.28 5.4)"><path class="cls-1" d="M197.12,4h25.1V120.19c-12.88,2.45-22.33,3.43-32.6,3.43C159,123.62,143,109.76,143,83.19,143,57.6,160,41,186.2,41a39.83,39.83,0,0,1,10.92,1.31Zm0,58.49a24.93,24.93,0,0,0-8.48-1.3c-12.71,0-20,7.82-20,21.51,0,13.37,7,20.7,19.89,20.7a58.14,58.14,0,0,0,8.64-.65Zm65-19.72V101c0,20-1.47,29.66-5.87,38-4.08,8-9.46,13-20.54,18.58l-23.31-11.14c11.08-5.22,16.46-9.78,19.88-16.79,3.59-7.17,4.73-15.49,4.73-37.33V42.77ZM237.05,4.13h25.11V29.89H237.05Z"/></clipPath><linearGradient id="linear-gradient" x1="0.8" y1="163.25" x2="164.86" y2="-0.8" gradientUnits="userSpaceOnUse"><stop offset="0" stop-color="#ffd900"/><stop offset="0.27" stop-color="#f07"/><stop offset="0.58" stop-color="#3e5151"/><stop offset="0.84" stop-color="#513e3e"/></linearGradient></defs><g class="cls-2"><rect class="cls-3" width="165.66" height="162.44"/></g></svg>