<svg id="Layer_1" data-name="Layer 1" xmlns="http://www.w3.org/2000/svg" xmlns:xlink="http://www.w3.org/1999/xlink" viewBox="0 0 8.52 8.82"><defs><style>.cls-1{fill:none;}.cls-2{clip-path:url(#clip-path);}.cls-3{fill:url(#linear-gradient);}</style><clipPath id="clip-path" transform="translate(-0.03 -0.13)"><path class="cls-1" d="M2.36,1.17H1.41L1.9,6.46,4.23,8,6.56,6.46l.5-5.29H6.11v.58A.08.08,0,0,1,6,1.83H2.44a.08.08,0,0,1-.08-.08ZM4.54,3.08a.21.21,0,1,1,.39.17l-1,2.3a.21.21,0,0,1-.28.11.21.21,0,0,1-.11-.28Zm.54.68a.22.22,0,0,1,0-.3.21.21,0,0,1,.3,0l.85.71a.22.22,0,0,1,0,.3l0,0-.85.71a.21.21,0,0,1-.3,0,.22.22,0,0,1,0-.3l.66-.55Zm-2-.32a.21.21,0,0,1,.3,0,.22.22,0,0,1,0,.3l-.66.56.66.55a.22.22,0,0,1,0,.3.21.21,0,0,1-.3,0l-.85-.71,0,0a.21.21,0,0,1,0-.3ZM5.94.52H2.53V1.66H5.94Z"/></clipPath><linearGradient id="linear-gradient" x1="-0.07" y1="8.74" x2="8.59" y2="0.07" gradientUnits="userSpaceOnUse"><stop offset="0" stop-color="#ffd900"/><stop offset="0.27" stop-color="#f07"/><stop offset="0.58" stop-color="#3e5151"/><stop offset="0.84" stop-color="#513e3e"/></linearGradient></defs><g class="cls-2"><rect class="cls-3" width="8.52" height="8.82"/></g></svg>