<svg xmlns="http://www.w3.org/2000/svg" xmlns:xlink="http://www.w3.org/1999/xlink" viewBox="0 0 1014.04 1003.24"><defs><style>.cls-1{fill:none;}.cls-2{clip-path:url(#clip-path);}.cls-3{stroke:#000;stroke-miterlimit:10;fill:url(#linear-gradient);}</style><clipPath id="clip-path" transform="translate(10.84 47.02)"><path class="cls-1" d="M905.32,0h-872A33.28,33.28,0,0,0,0,33.28V866.72A33.28,33.28,0,0,0,33.28,900h872a33.28,33.28,0,0,0,33.28-33.28V33.28A33.28,33.28,0,0,0,905.32,0ZM529.91,692c0,125.45-61.68,164-143,164-22.43,0-49.76-4.91-65.18-11.21L330.86,795c12.62,4.9,30.84,9.11,51.17,9.11,54.66,0,86.9-24.53,86.9-117.05V375.86h61Zm198.34,163.3c-45.56,0-95.32-13.32-120.55-30.14L623.12,774c27.33,16.82,67.28,30.84,109.33,30.84,62.38,0,98.83-32.94,98.83-80.6,0-44.16-25.23-69.39-89-93.92C665.17,602.94,617.51,563,617.51,496.41c0-73.6,61-128.26,152.79-128.26,48.36,0,83.4,11.21,104.43,23.13L857.91,441a188.15,188.15,0,0,0-89.71-22.43c-64.48,0-89,38.55-89,70.79,0,44.15,28.73,65.88,93.91,91.11C853,611.35,893.65,649.9,893.65,719.28,893.65,792.17,839.69,855.25,728.25,855.25Z"/></clipPath><linearGradient id="linear-gradient" x1="3.2" y1="1005.44" x2="1010.84" y2="-2.2" gradientUnits="userSpaceOnUse"><stop offset="0" stop-color="#ffd900"/><stop offset="0.27" stop-color="#f07"/><stop offset="0.58" stop-color="#3e5151"/><stop offset="0.84" stop-color="#513e3e"/></linearGradient></defs><g id="Layer_2" data-name="Layer 2"><g id="Layer_1-2" data-name="Layer 1"><g class="cls-2"><rect class="cls-3" x="0.5" y="0.5" width="1013.04" height="1002.24"/></g></g></g></svg>