<svg xmlns="http://www.w3.org/2000/svg" xmlns:xlink="http://www.w3.org/1999/xlink" viewBox="0 0 822.16 816.04"><defs><style>.cls-1{fill:none;clip-rule:evenodd;}.cls-2{clip-path:url(#clip-path);}.cls-3{stroke:#000;stroke-miterlimit:10;fill:url(#linear-gradient);}</style><clipPath id="clip-path" transform="translate(1.46 3.98)"><path class="cls-1" d="M686.6,202.32H618.88V298s3.64,114-111.6,114H315s-108-1.72-108,105V693.24S190.64,800,402.88,800c203.12,0,190.44-88.54,190.44-88.54l-.24-91.71H399.28V592.21H670S800,607,800,401.05,686.6,202.32,686.6,202.32ZM509.76,668.24a35,35,0,1,1-34.88,35A34.91,34.91,0,0,1,509.76,668.24ZM397.12,0C194,0,206.72,88.54,206.72,88.54l.24,91.71h193.8v27.54H130S0,193,0,399,113.44,597.68,113.44,597.68h67.68V502.05s-3.64-114,111.64-114H485s108,1.72,108-105V106.76S609.36,0,397.12,0ZM290.28,131.76a35,35,0,1,1,34.84-35A34.91,34.91,0,0,1,290.28,131.76Z"/></clipPath><linearGradient id="linear-gradient" x1="2.03" y1="817.07" x2="820.13" y2="-1.03" gradientUnits="userSpaceOnUse"><stop offset="0" stop-color="#ffd900"/><stop offset="0.27" stop-color="#f07"/><stop offset="0.58" stop-color="#3e5151"/><stop offset="0.84" stop-color="#513e3e"/></linearGradient></defs><g id="Layer_2" data-name="Layer 2"><g id="Layer_1-2" data-name="Layer 1"><g class="cls-2"><rect class="cls-3" x="0.5" y="0.5" width="821.16" height="815.04"/></g></g></g></svg>