<svg xmlns="http://www.w3.org/2000/svg" xmlns:xlink="http://www.w3.org/1999/xlink" viewBox="0 0 510.76 488.99"><defs><style>.cls-1{fill:none;}.cls-2{clip-path:url(#clip-path);}.cls-3{stroke:#000;stroke-miterlimit:10;fill:url(#linear-gradient);}</style><clipPath id="clip-path" transform="translate(52.54 17.09)"><path class="cls-1" d="M104.83,113.6a23.94,23.94,0,0,1-47.73,2.58A24.34,24.34,0,0,1,57,113.6a23.94,23.94,0,0,1,47.6-3.58A23.48,23.48,0,0,1,104.83,113.6Zm168.3,281.24a23.94,23.94,0,0,1-23.94,23.93c-.4,0-.8,0-1.19,0a23.93,23.93,0,0,1-2.28-47.57,23.33,23.33,0,0,1,3.47-.26,24,24,0,0,1,23.94,23.93Zm124.41-216a23.93,23.93,0,1,1-3-11.51A23.93,23.93,0,0,1,397.54,178.79ZM275.26,211.24q-.24-9.9-.74-19.62c-.91-18.19-2.45-35.82-4.57-52.55q-1.05-8.34-2.3-16.36a440.51,440.51,0,0,0-10.86-51.27C243.65,24.7,225.59,0,204.56,0s-39.09,24.7-52.23,71.44a440.51,440.51,0,0,0-10.86,51.27q-1.25,8-2.3,16.36c-2.12,16.73-3.66,34.36-4.57,52.55q-.49,9.7-.74,19.61-.27,10.31-.27,20.77t.27,20.76q.24,9.9.74,19.62c.91,18.19,2.45,35.82,4.57,52.55q1.05,8.34,2.3,16.36a440.51,440.51,0,0,0,10.86,51.27c13.14,46.73,31.2,71.44,52.23,71.44,13.55,0,25.87-10.26,36.44-30.07a39.74,39.74,0,0,1-14.71-6.4c-8,14.61-15.82,20.47-21.73,20.47-9.68,0-24.44-15.7-36.83-59.77a431.19,431.19,0,0,1-11-53.1q-1.22-8.08-2.21-16.51c-1.37-11.54-2.47-23.5-3.27-35.78q-.64-9.6-1-19.46c-.41-10.3-.62-20.78-.62-31.38s.21-21.09.62-31.39q.38-9.84,1-19.45c.8-12.28,1.9-24.24,3.27-35.78q1-8.41,2.21-16.51a431.19,431.19,0,0,1,11-53.1C180.12,31.7,194.88,16,204.56,16S229,31.7,241.39,75.77a431.19,431.19,0,0,1,11,53.1q1.22,8.08,2.21,16.51c1.37,11.54,2.47,23.5,3.27,35.78q.64,9.6,1,19.46c.41,10.3.62,20.78.62,31.38s-.21,21.08-.62,31.38q-.37,9.86-1,19.46c-.8,12.28-1.9,24.24-3.27,35.78q-1,8.42-2.21,16.51-1.5,10.17-3.31,19.78h.09a39.87,39.87,0,0,1,15.59,3.16q1.55-8.19,2.87-16.78,1.25-8,2.3-16.36c2.12-16.73,3.66-34.36,4.57-52.55q.5-9.7.74-19.62.27-10.29.27-20.76T275.26,211.24ZM405.48,116c-6.36-11-19.88-16.6-40.17-16.6-25,0-59.17,8.37-97.66,23.31q-7.51,2.91-15.24,6.16c-15.49,6.51-31.54,14-47.85,22.34q-8.67,4.44-17.41,9.2-9,4.91-18.08,10.13t-17.84,10.62q-8.46,5.16-16.63,10.46c-15.32,9.89-29.83,20-43.28,30.26Q84.66,226.94,78.37,232a439,439,0,0,0-39,35.05C5.49,301.79-6.87,329.79,3.64,348c6.36,11,19.88,16.6,40.17,16.6,25,0,59.17-8.37,97.66-23.31q7.51-2.91,15.24-6.16c15.49-6.51,31.54-14,47.85-22.34q8.67-4.44,17.41-9.2,9-4.9,18.08-10.13t17.84-10.62q8.46-5.16,16.63-10.46c15.32-9.89,29.83-20,43.28-30.26q6.66-5.06,12.95-10.12c7.89-6.35,15.34-12.7,22.28-19a40.14,40.14,0,0,1-11.81-10.89Q330.31,212,317.8,221.88,311.43,227,304.66,232c-9.32,7-19.15,13.92-29.4,20.76q-8,5.36-16.35,10.62-13.08,8.26-26.86,16.23t-27.49,15.13q-8.75,4.59-17.41,8.85c-11.06,5.44-22,10.46-32.65,15q-7.75,3.31-15.33,6.31c-38,15.05-71.8,23.67-95.36,23.67C30,348.6,20.7,345.54,17.5,340c-4.84-8.38,1.38-29,33.35-61.78a433.1,433.1,0,0,1,40.47-36.1q6.38-5.07,13.14-10.12c9.32-7,19.15-13.92,29.4-20.77q8-5.35,16.35-10.62,13.08-8.27,26.86-16.22t27.49-15.13q8.74-4.59,17.41-8.85c11.06-5.44,22-10.46,32.65-15q7.75-3.31,15.33-6.31c38-15,71.8-23.67,95.36-23.67,13.77,0,23.11,3,26.31,8.6,2.16,3.73,2.12,9.89-1.41,18.47a40,40,0,0,1,13.16,9.74C410.22,137.75,411,125.53,405.48,116ZM369.72,267.05a439,439,0,0,0-39-35.05q-6.28-5.07-12.95-10.12c-13.45-10.22-28-20.37-43.28-30.26q-8.16-5.3-16.63-10.46-8.77-5.4-17.84-10.62T222,160.41q-8.75-4.75-17.41-9.2c-16.31-8.34-32.36-15.83-47.85-22.34q-7.72-3.24-15.24-6.16-10.56-4.11-20.67-7.53a39.72,39.72,0,0,1-3.88,15.65q10.83,3.71,22.25,8.24,7.56,3,15.33,6.31c10.67,4.57,21.59,9.59,32.65,15q8.65,4.26,17.41,8.85,13.71,7.19,27.49,15.13t26.86,16.23q8.34,5.25,16.35,10.62c10.25,6.84,20.08,13.79,29.4,20.76q6.75,5.06,13.14,10.12a433.1,433.1,0,0,1,40.47,36.1c32,32.77,38.19,53.4,33.35,61.78-3.2,5.54-12.54,8.6-26.31,8.6C341.75,348.6,308,340,270,324.93q-7.56-3-15.33-6.31C244,314.05,233,309,222,303.59q-8.66-4.26-17.41-8.85-13.71-7.19-27.49-15.13t-26.86-16.23q-8.34-5.25-16.35-10.62c-10.25-6.84-20.08-13.79-29.4-20.76q-6.75-5.06-13.14-10.12a433.1,433.1,0,0,1-40.47-36.1C18.88,153,12.66,132.38,17.5,124c3-5.16,11.27-8.16,23.5-8.55,0-.61,0-1.23,0-1.85a39.65,39.65,0,0,1,2.61-14.2C23.41,99.44,10,105,3.64,116-6.87,134.21,5.49,162.2,39.4,197a439,439,0,0,0,39,35.05q6.28,5.07,12.95,10.12c13.45,10.22,28,20.37,43.28,30.26q8.16,5.3,16.63,10.46,8.78,5.4,17.84,10.62t18.08,10.13q8.74,4.76,17.41,9.2c16.31,8.34,32.36,15.83,47.85,22.34q7.72,3.24,15.24,6.16c38.49,14.94,72.7,23.31,97.66,23.31,20.29,0,33.81-5.59,40.17-16.6C416,329.79,403.63,301.79,369.72,267.05ZM204.56,204.57A27.43,27.43,0,1,1,177.13,232,27.43,27.43,0,0,1,204.56,204.57Z"/></clipPath><linearGradient id="linear-gradient" x1="5.94" y1="493.93" x2="504.82" y2="-4.94" gradientUnits="userSpaceOnUse"><stop offset="0" stop-color="#ffd900"/><stop offset="0.27" stop-color="#f07"/><stop offset="0.58" stop-color="#3e5151"/><stop offset="0.84" stop-color="#513e3e"/></linearGradient></defs><g id="Layer_2" data-name="Layer 2"><g id="Layer_1-2" data-name="Layer 1"><g class="cls-2"><rect class="cls-3" x="0.5" y="0.5" width="509.76" height="487.99"/></g></g></g></svg>