<svg xmlns="http://www.w3.org/2000/svg" xmlns:xlink="http://www.w3.org/1999/xlink" viewBox="0 0 114.29 95.78"><defs><style>.cls-1{fill:none;}.cls-2{clip-path:url(#clip-path);}.cls-3{fill:#fff;}.cls-4{clip-path:url(#clip-path-2);}</style><clipPath id="clip-path" transform="translate(6.2 1.13)"><path class="cls-1" d="M72.73,72.73h-5L72.46,68a13.69,13.69,0,0,0,3-4.54,18.17,18.17,0,0,0-2.74-36.14,18,18,0,0,0-9.56,2.78,13.75,13.75,0,0,0-1.46-3.56,27.24,27.24,0,1,0-38,34A13.46,13.46,0,0,0,27.47,68L32,72.43A36.35,36.35,0,1,1,68.11,18.65a27,27,0,0,1,4.62-.47,27.28,27.28,0,0,1,0,54.55Z"/></clipPath><clipPath id="clip-path-2" transform="translate(6.2 1.13)"><path class="cls-1" d="M40.32,55.09l5.1,5.1V33.31a4.55,4.55,0,1,1,9.09,0V60.19l5.1-5.1A4.55,4.55,0,0,1,66,61.52L53.18,74.38a4.56,4.56,0,0,1-6.43,0L33.9,61.52a4.54,4.54,0,0,1,6.42-6.43Z"/></clipPath></defs><g id="Layer_2" data-name="Layer 2"><g id="Layer_1-2" data-name="Layer 1"><g class="cls-2"><rect class="cls-3" width="110.67" height="94.66"/></g><g class="cls-4"><rect class="cls-3" x="3.61" y="1.12" width="110.67" height="94.66"/></g></g></g></svg>