<svg xmlns="http://www.w3.org/2000/svg" xmlns:xlink="http://www.w3.org/1999/xlink" version="1.1" x="0px" y="0px" viewBox="0 0 1024 1280" style="enable-background:new 0 0 1024 1024;" xml:space="preserve"><g><path d="M978,500.8c-42.68-85.14-107.89-157.02-188.59-207.88C706.44,240.64,610.52,213,512,213s-194.45,27.64-277.41,79.92   C153.89,343.78,88.67,415.66,46,500.8L40.39,512L46,523.2c42.67,85.14,107.89,157.02,188.59,207.88   C317.55,783.36,413.48,811,512,811s194.44-27.64,277.41-79.92C870.11,680.22,935.32,608.34,978,523.2l5.62-11.2L978,500.8z    M512,761c-175.2,0-333.26-95.08-415.5-249C178.74,358.08,336.8,263,512,263c175.19,0,333.25,95.08,415.5,249   C845.25,665.92,687.19,761,512,761z"/><path d="M666.86,357.14C625.49,315.78,570.5,293,512,293s-113.49,22.78-154.86,64.14C315.78,398.51,293,453.5,293,512   s22.78,113.49,64.14,154.86C398.51,708.22,453.5,731,512,731s113.49-22.78,154.86-64.14C708.22,625.49,731,570.5,731,512   S708.22,398.51,666.86,357.14z M512,441c-39.15,0-71,31.85-71,71h-50c0-66.72,54.28-121,121-121V441z"/></g><text x="0" y="1039" fill="#000000" font-size="5px" font-weight="bold" font-family="'Helvetica Neue', Helvetica, Arial-Unicode, Arial, Sans-serif">Created by shashank singh</text><text x="0" y="1044" fill="#000000" font-size="5px" font-weight="bold" font-family="'Helvetica Neue', Helvetica, Arial-Unicode, Arial, Sans-serif">from the Noun Project</text></svg>