<svg height="24" viewBox="0 0 24 24" width="24" xmlns="http://www.w3.org/2000/svg"><path d="m8.073 12.194-3.861-3.861c-1.52 1.657-2.096 3.317-2.106 3.351l-.106.316.105.316c.022.067 2.316 6.684 9.949 6.684.929 0 1.775-.102 2.552-.273l-2.746-2.746c-2.049-.101-3.686-1.738-3.787-3.787zm3.981-7.194c-1.855 0-3.375.404-4.642.998l-3.705-3.705-1.414 1.414 18 18 1.414-1.414-3.298-3.298c2.638-1.953 3.579-4.637 3.593-4.679l.105-.316-.105-.316c-.022-.067-2.315-6.684-9.948-6.684zm1.906 7.546c.187-.677.028-1.439-.492-1.96s-1.283-.679-1.96-.492l-1.508-1.508c.602-.364 1.3-.586 2.054-.586 2.206 0 4 1.794 4 4 0 .754-.222 1.452-.587 2.053z"/></svg>