<svg xmlns="http://www.w3.org/2000/svg" viewBox="0 0 48 24.32"><g id="Layer_2" data-name="Layer 2"><g id="Layer_1-2" data-name="Layer 1"><path d="M.24,11.51a1,1,0,0,0,0,1.3C6.57,20.22,15,24.31,24,24.32H24c9,0,17.39-4.1,23.72-11.51a1,1,0,0,0,0-1.3C41.42,4.09,33,0,24,0S6.58,4.09.24,11.51Zm13.6.65A10.16,10.16,0,1,1,24,22.32H24A10.17,10.17,0,0,1,13.84,12.16Zm31.83,0A30.35,30.35,0,0,1,32.31,21a12.1,12.1,0,0,0,0-17.7A30.44,30.44,0,0,1,45.67,12.16Zm-30-8.85a12.1,12.1,0,0,0,0,17.7A30.35,30.35,0,0,1,2.33,12.16,30.44,30.44,0,0,1,15.69,3.31Z"/><path d="M30.88,12.16a6.79,6.79,0,0,0-.48-2.51A1,1,0,0,0,29.58,9a1,1,0,0,0-.94.43,1.39,1.39,0,1,1-1.93-1.93,1,1,0,0,0-.2-1.76A6.79,6.79,0,0,0,24,5.28a6.88,6.88,0,1,0,6.88,6.88Zm-11.76,0A4.89,4.89,0,0,1,24,7.28h.39a3.4,3.4,0,0,0,4.48,4.48c0,.13,0,.26,0,.39a4.88,4.88,0,1,1-9.76,0Z"/></g></g></svg>