<svg xmlns="http://www.w3.org/2000/svg" viewBox="0 0 288.04 288.11"><defs><style>.cls-1{fill:#d6c370;}.cls-2{fill:#ead67f;}.cls-3{fill:#e6e7e8;}.cls-4{fill:#43536c;}.cls-5{fill:#eac83b;}</style></defs><g id="Layer_2" data-name="Layer 2"><g id="Email_Marketing" data-name="Email Marketing"><g id="Email_Marketing-2" data-name="Email Marketing"><rect class="cls-1" y="89.19" width="288.03" height="198.91"/><polygon class="cls-2" points="288.04 89.19 0 89.19 98.81 0 196.33 0 288.04 89.19"/><path class="cls-3" d="M256,198.46A6.55,6.55,0,0,1,249.4,205H38.63a6.55,6.55,0,0,1-6.55-6.55V79.1a6.55,6.55,0,0,1,6.55-6.55H249.4A6.55,6.55,0,0,1,256,79.1Z"/><path class="cls-4" d="M165.74,175.56a13.62,13.62,0,0,1-5.36-.91,10.22,10.22,0,0,1-3.53-2.42,25,25,0,0,1-5.36,2.07,23.67,23.67,0,0,1-6.26.86,24.74,24.74,0,0,1-8.84-1.52,19,19,0,0,1-6.92-4.49,20.45,20.45,0,0,1-4.54-7.32,28.9,28.9,0,0,1-1.62-10.11,27.3,27.3,0,0,1,1.51-9.14,20.74,20.74,0,0,1,11.77-12.47,24.64,24.64,0,0,1,9.75-1.82,51,51,0,0,1,9.44.81,50.23,50.23,0,0,1,6.62,1.61v30.91c0,2.16.37,3.67,1.11,4.55a3.64,3.64,0,0,0,2.93,1.31,6.55,6.55,0,0,0,4.6-1.82,13.75,13.75,0,0,0,3.23-4.74,28.61,28.61,0,0,0,1.87-6.62,46.72,46.72,0,0,0,.6-7.52,32.16,32.16,0,0,0-2.22-12,29.11,29.11,0,0,0-16.41-16.52,34.85,34.85,0,0,0-13.29-2.42,36,36,0,0,0-13.53,2.47,30.26,30.26,0,0,0-10.61,7.07,32,32,0,0,0-6.92,11.27,43.29,43.29,0,0,0-2.47,15.15,42.67,42.67,0,0,0,2.62,15.6,29.89,29.89,0,0,0,18.44,18,41.77,41.77,0,0,0,14.09,2.28,56.83,56.83,0,0,0,9.85-.71,39.44,39.44,0,0,0,5-1.11l1,7.47a40.87,40.87,0,0,1-6.21,1.32,62.46,62.46,0,0,1-9.65.7,54.85,54.85,0,0,1-17-2.57,38.57,38.57,0,0,1-13.94-7.88,37.22,37.22,0,0,1-9.44-13.54q-3.5-8.22-3.49-19.54A49,49,0,0,1,106,132.74,37.71,37.71,0,0,1,128.71,111a47.49,47.49,0,0,1,16.11-2.73A45.64,45.64,0,0,1,160.48,111a38,38,0,0,1,12.93,7.78,37.22,37.22,0,0,1,8.79,12.32,39.6,39.6,0,0,1,3.23,16.31,42.65,42.65,0,0,1-1.56,12.12,28.81,28.81,0,0,1-4.2,8.84,17.3,17.3,0,0,1-6.26,5.41A16.93,16.93,0,0,1,165.74,175.56Zm-20.21-8.18a21.16,21.16,0,0,0,4.3-.45,15,15,0,0,0,3.89-1.37,17,17,0,0,1-.41-2.62c-.07-.88-.1-1.72-.1-2.53V136.68a13.62,13.62,0,0,0-2.32-.41,34.33,34.33,0,0,0-3.84-.2q-7.17,0-10.71,4.44a17.44,17.44,0,0,0-3.53,11.21q0,7.18,3.43,11.42A11.32,11.32,0,0,0,145.53,167.38Z"/><rect class="cls-2" y="189.94" width="288.03" height="98.17"/><polygon class="cls-5" points="0 288.11 0 89.19 144.02 188.65 0 288.11"/><polygon class="cls-5" points="288.04 288.11 288.04 89.19 144.02 188.65 288.04 288.11"/></g></g></g></svg>