<svg xmlns="http://www.w3.org/2000/svg" xmlns:xlink="http://www.w3.org/1999/xlink" viewBox="0 0 512.93 511.21"><defs><style>.cls-1{fill:none;clip-rule:evenodd;}.cls-2{clip-path:url(#clip-path);}.cls-3{fill:url(#linear-gradient);}</style><clipPath id="clip-path" transform="translate(0.47 -1.26)"><path class="cls-1" d="M192,368a16,16,0,1,1,16,16,16,16,0,0,1-16-16ZM349.33,494.16A47.4,47.4,0,0,1,288,448.25V390.07a46.06,46.06,0,0,1,30.8-43.44C353.16,335.08,384,306.08,384,272V240c0-15.16-6.19-29.29-16-41.37V162.5c0-17.67-14.33-23.72-32-13.5l-24.52,14.18A94.33,94.33,0,0,0,288,160H224a94.33,94.33,0,0,0-23.48,3.18L176,149c-17.67-10.22-32-4.17-32,13.5v36.13c-9.81,12.08-16,26.21-16,41.37v32c0,23.29,14.49,44.19,34.58,58.82l0,0A16,16,0,1,1,142,355.1C115,334.63,96,305,96,272V240c0-18.52,6-36,16-51.38V141c0-35.33,28.65-47.44,64-27l27.46,15.88A123.17,123.17,0,0,1,224,128h64a123.17,123.17,0,0,1,20.54,1.88L336,114c35.36-20.44,64-8.34,64,27v47.63c10,15.4,16,32.86,16,51.38v32c0,47.61-39.25,88.14-85.53,104.36-.06.05-.11.18-.19.19A16,16,0,0,0,320,391.5v56.75a16,16,0,0,0,16,16,15.45,15.45,0,0,0,3.8-.68C422,430.41,480,350.07,480,256,480,132.29,379.72,32,256,32S32,132.29,32,256c0,97.41,62.25,180.07,149.12,210.9.45,0,.85.23,1.32.23a9.56,9.56,0,0,0,0-19.12c-.12,0-.12-.1-.19-.15C129.09,446.44,129,384,112,384a16,16,0,0,1,0-32h8c32,0,27.44,64,72,64a32,32,0,0,1,32,32v28a28,28,0,0,1-28,28,25.59,25.59,0,0,1-4.89-.66C81.2,474.61,0,374.93,0,256,0,114.62,114.62,0,256,0S512,114.62,512,256c0,108.41-67.49,200.85-162.67,238.16Z"/></clipPath><linearGradient id="linear-gradient" x1="0.43" y1="511.64" x2="512.5" y2="-0.43" gradientUnits="userSpaceOnUse"><stop offset="0.01" stop-color="#ffd900"/><stop offset="0.33" stop-color="#f07"/><stop offset="0.71" stop-color="#3e5151"/><stop offset="0.99" stop-color="#2ffcff"/></linearGradient></defs><g id="Layer_2" data-name="Layer 2"><g id="Layer_12" data-name="Layer 12"><g class="cls-2"><rect class="cls-3" width="512.93" height="511.21"/></g></g></g></svg>