<svg xmlns="http://www.w3.org/2000/svg" xmlns:xlink="http://www.w3.org/1999/xlink" viewBox="0 0 65.7 64.98"><defs><style>.cls-1{fill:none;clip-rule:evenodd;}.cls-2{clip-path:url(#clip-path);}.cls-3{fill:url(#linear-gradient);}</style><clipPath id="clip-path" transform="translate(1.22 0.38)"><path class="cls-1" d="M45.13,40.5l-6.47-1.22A2.15,2.15,0,0,1,37,36.78,2,2,0,0,1,39.37,35l7.07,1.33a4.45,4.45,0,0,1,3.49,5.15c0,.05,0,.1,0,.15a8,8,0,0,1-1.68,3.17c-4.61,5.31-15.56,3.78-24.44-3.41S11.42,24.1,16,18.79a8.86,8.86,0,0,1,4.26-2.63l.43-.11h0a4.31,4.31,0,0,1,4.62,2.62l2.52,6.75a1.91,1.91,0,0,1-1.19,2.46,2,2,0,0,1-2.52-1.15l-2.32-6.2a.9.9,0,0,0-1.09-.48,5.18,5.18,0,0,0-1.65,1.22c-3.19,3.68,0,11.37,7.24,17.19S42,46,45.15,42.35a4.15,4.15,0,0,0,.51-.73.78.78,0,0,0,.08-.23.79.79,0,0,0-.61-.89ZM6,42a2,2,0,1,1-2-2,2,2,0,0,1,2,2ZM32,64a31.77,31.77,0,0,1-14-3.24l-.19-.09-.19-.08a5.47,5.47,0,0,0-3.91-.4l-.08,0-5.8,1.61-.07,0a4.62,4.62,0,0,1-2.42,0,4.56,4.56,0,0,1-3.18-5.59,1,1,0,0,0,0-.15L3.89,50H4a2,2,0,0,1,4,0H8L8,50.24a2.06,2.06,0,0,1-.17.6L6,57.31H6A.54.54,0,0,0,6.4,58a.77.77,0,0,0,.26,0h0l5.95-1.66h0a9.5,9.5,0,0,1,6.74.65l.06,0A28,28,0,1,0,4,32c0,.59,0,1.17.07,1.74H4c0,.08,0,.17,0,.25a2,2,0,0,1-4,0,2.12,2.12,0,0,1,.05-.44c0-.52,0-1,0-1.56A32,32,0,1,1,32,64Z"/></clipPath><linearGradient id="linear-gradient" x1="0.18" y1="65.16" x2="65.52" y2="-0.18" gradientUnits="userSpaceOnUse"><stop offset="0.01" stop-color="#ffd900"/><stop offset="0.33" stop-color="#f07"/><stop offset="0.71" stop-color="#3e5151"/><stop offset="0.99" stop-color="#2ffcff"/></linearGradient></defs><g id="Layer_2" data-name="Layer 2"><g id="Layer_1-2" data-name="Layer 1"><g class="cls-2"><rect class="cls-3" width="65.7" height="64.98"/></g></g></g></svg>